<svg id="Capa_1" data-name="Capa 1" xmlns="http://www.w3.org/2000/svg" viewBox="0 0 113.39 113.39"><defs><style>.cls-1{fill:#c6631b;}</style></defs><title>delete</title><path class="cls-1" d="M99.77,19.17h-25V17A11,11,0,0,0,63.78,6H49.44A10.94,10.94,0,0,0,38.5,17v2.18h-25A4.86,4.86,0,0,0,8.59,24,4.73,4.73,0,0,0,13.2,28.9h5.48V84.59a20.67,20.67,0,0,0,20.67,20.67H74A20.68,20.68,0,0,0,94.67,84.59V28.9h5.1a4.75,4.75,0,0,0,4.87-4.62V24A4.87,4.87,0,0,0,99.77,19.17ZM48.22,17a1.22,1.22,0,0,1,1.22-1.22H63.78A1.21,1.21,0,0,1,65,17v2.18H48.22Zm36.72,67.6A10.94,10.94,0,0,1,74,95.53H39.35a10.94,10.94,0,0,1-11-10.94V28.9H84.94Z"/><path class="cls-1" d="M40,86.41a4.87,4.87,0,0,0,4.87-4.86V40.21a4.87,4.87,0,0,0-9.73,0V81.55A4.87,4.87,0,0,0,40,86.41Z"/><path class="cls-1" d="M56.61,86.41a4.86,4.86,0,0,0,4.86-4.86V40.21a4.86,4.86,0,1,0-9.72,0V81.55A4.87,4.87,0,0,0,56.61,86.41Z"/><path class="cls-1" d="M73.27,86.41a4.87,4.87,0,0,0,4.86-4.86V40.21a4.87,4.87,0,0,0-9.73,0V81.55a4.87,4.87,0,0,0,4.87,4.86Z"/></svg>