<svg id="Capa_1" data-name="Capa 1" xmlns="http://www.w3.org/2000/svg" viewBox="0 0 170 170"><defs><style>.cls-1{fill:#fff;stroke:#fff;stroke-miterlimit:10;stroke-width:6px;}.cls-2{fill:#fc5b73;}</style></defs><title>favoritos</title><path class="cls-1" d="M28.17,98.39c16.86,15,46.43,41.76,55,49.29.26,0,.26.26.52.26a.25.25,0,0,1,.26.26c.26,0,.52.25,1,.25s.78,0,1-.25a.25.25,0,0,0,.26-.26c.26,0,.26-.26.51-.26,8.82-7.53,38.14-34,55-49.29C154,87.49,160.47,72.7,160,57.92,159.43,42.87,152.17,32,139.2,26,110.66,13,91.2,31.72,85,39.24,78.75,31.72,59.3,13,30.76,26,17.53,32,10.53,43.13,10,57.92S16.23,87.49,28.17,98.39Z"/><path class="cls-2" d="M15.2,58.18c.51-13,6.48-22.31,17.9-27.5,30.61-14,49,13,49.8,14.27.52.52,1,1,1.56,1h1a1.73,1.73,0,0,0,1.55-1c.78-1,19.2-28.28,49.81-14.27,11.42,5.19,17.38,14.53,17.9,27.5.52,13.23-5.45,26.46-16.6,36.32-15.83,14.26-42.8,38.65-53.18,47.73C74.6,133.15,47.62,108.76,31.8,94.5,20.64,84.64,14.68,71.41,15.2,58.18Z"/></svg>