<?xml version="1.0" encoding="utf-8"?>
<!-- Generator: Adobe Illustrator 22.1.0, SVG Export Plug-In . SVG Version: 6.00 Build 0)  -->
<svg version="1.1" id="Capa_1" xmlns="http://www.w3.org/2000/svg" xmlns:xlink="http://www.w3.org/1999/xlink" x="0px" y="0px"
	 viewBox="0 0 170 170" style="enable-background:new 0 0 170 170;" xml:space="preserve">
<style type="text/css">
	.st0{fill:#182225;}
</style>
<title>favoritos</title>
<path class="st0" d="M28.2,98.4c16.9,15,46.4,41.8,55,49.3c0.3,0,0.3,0.3,0.5,0.3c0.1,0,0.3,0.1,0.3,0.2c0,0,0,0,0,0
	c0.3,0,0.5,0.3,1,0.3s0.8,0,1-0.3c0.1,0,0.3-0.1,0.3-0.2c0,0,0,0,0,0c0.3,0,0.3-0.3,0.5-0.3c8.8-7.5,38.1-34,55-49.3
	C154,87.5,160.5,72.7,160,57.9c-0.6-15-7.8-25.9-20.8-31.9c-28.5-13-48,5.7-54.2,13.2C78.8,31.7,59.3,13,30.8,26
	C17.5,32,10.5,43.1,10,57.9S16.2,87.5,28.2,98.4z M15.2,58.2c0.5-13,6.5-22.3,17.9-27.5c30.6-14,49,13,49.8,14.3c0.5,0.5,1,1,1.6,1
	h1c0.7,0,1.3-0.4,1.6-1c0.8-1,19.2-28.3,49.8-14.3c11.4,5.2,17.4,14.5,17.9,27.5c0.5,13.2-5.4,26.5-16.6,36.3
	c-15.8,14.3-42.8,38.6-53.2,47.7c-10.3-9.1-37.3-33.5-53.1-47.7C20.6,84.6,14.7,71.4,15.2,58.2L15.2,58.2z"/>
</svg>
