<?xml version="1.0" encoding="utf-8"?>
<!-- Generator: Adobe Illustrator 22.1.0, SVG Export Plug-In . SVG Version: 6.00 Build 0)  -->
<svg version="1.1" id="Capa_1" xmlns="http://www.w3.org/2000/svg" xmlns:xlink="http://www.w3.org/1999/xlink" x="0px" y="0px"
	 viewBox="0 0 40 40" style="enable-background:new 0 0 40 40;" xml:space="preserve">
<style type="text/css">
	.st0{fill:#C6631B;}
	.st1{fill:#FFFFFF;}
</style>
<title>img</title>
<path class="st0" d="M20,0L20,0c11,0,20,9,20,20l0,0c0,11-9,20-20,20l0,0C9,40,0,31,0,20l0,0C0,9,9,0,20,0z"/>
<path class="st1" d="M33.2,13.7c-0.3-1.2-1.2-2.1-2.4-2.4c-2.1-0.6-10.5-0.6-10.5-0.6s-8.4,0-10.6,0.6c-1.2,0.3-2.1,1.2-2.4,2.4
	c-0.4,2.2-0.6,4.3-0.6,6.5s0.2,4.4,0.6,6.5c0.3,1.2,1.2,2.1,2.4,2.4c2.1,0.6,10.6,0.6,10.6,0.6s8.4,0,10.5-0.6
	c1.2-0.3,2.1-1.2,2.4-2.4c0.4-2.2,0.6-4.3,0.6-6.5C33.8,18.1,33.6,15.9,33.2,13.7"/>
<polygon class="st0" points="17.5,24.3 24.5,20.2 17.5,16.2 "/>
</svg>
