<?xml version="1.0" encoding="utf-8"?>
<!-- Generator: Adobe Illustrator 22.1.0, SVG Export Plug-In . SVG Version: 6.00 Build 0)  -->
<svg version="1.1" id="Capa_1" xmlns="http://www.w3.org/2000/svg" xmlns:xlink="http://www.w3.org/1999/xlink" x="0px" y="0px"
	 viewBox="0 0 40 40" style="enable-background:new 0 0 40 40;" xml:space="preserve">
<style type="text/css">
	.st0{fill:#C6631B;}
	.st1{fill:#FFFFFF;}
</style>
<title>img</title>
<path class="st0" d="M20,0L20,0c11,0,20,9,20,20l0,0c0,11-9,20-20,20l0,0C9,40,0,31,0,20l0,0C0,9,9,0,20,0z"/>
<path class="st1" d="M17.2,31h4.4V19.9h3.1l0.3-3.7h-3.4v-2.1c0-0.9,0.2-1.2,1-1.2H25V9h-3c-3.3,0-4.8,1.4-4.8,4.2v3h-2.3V20h2.3V31
	z"/>
</svg>
