<?xml version="1.0" encoding="utf-8"?>
<!-- Generator: Adobe Illustrator 22.1.0, SVG Export Plug-In . SVG Version: 6.00 Build 0)  -->
<svg version="1.1" id="Capa_1" xmlns="http://www.w3.org/2000/svg" xmlns:xlink="http://www.w3.org/1999/xlink" x="0px" y="0px"
	 viewBox="0 0 40 40" style="enable-background:new 0 0 40 40;" xml:space="preserve">
<style type="text/css">
	.st0{fill:#C6631B;}
	.st1{fill:#FFFFFF;stroke:#FFFFFF;stroke-width:0.53;stroke-miterlimit:10;}
</style>
<title>img</title>
<path class="st0" d="M20,0L20,0c11,0,20,9,20,20l0,0c0,11-9,20-20,20l0,0C9,40,0,31,0,20l0,0C0,9,9,0,20,0z"/>
<path class="st1" d="M20,10.7c2.9,0,3.3,0,4.5,0.1c0.7,0,1.4,0.1,2,0.4c0.5,0.2,0.9,0.5,1.3,0.8c0.4,0.4,0.7,0.8,0.8,1.3
	c0.2,0.6,0.4,1.3,0.4,2c0,1.2,0.1,1.5,0.1,4.4s0,3.3-0.1,4.5c0,0.7-0.1,1.4-0.4,2c-0.4,1-1.1,1.7-2.1,2.1c-0.6,0.2-1.3,0.4-2,0.4
	c-1.2,0-1.5,0.1-4.5,0.1s-3.3,0-4.4-0.1c-0.7,0-1.4-0.1-2-0.4c-0.5-0.2-0.9-0.5-1.3-0.8c-0.4-0.4-0.6-0.8-0.8-1.3
	c-0.2-0.6-0.4-1.3-0.4-2C11,23,11,22.6,11,19.7s0-3.3,0.1-4.4c0-0.7,0.1-1.4,0.4-2c0.2-0.5,0.5-0.9,0.8-1.3c0.4-0.4,0.8-0.6,1.3-0.8
	c0.6-0.2,1.3-0.4,2-0.4C16.7,10.7,17.1,10.7,20,10.7 M20,8.7c-3,0-3.4,0-4.5,0.1c-0.9,0-1.8,0.2-2.7,0.5c-1.5,0.6-2.6,1.7-3.2,3.2
	c-0.3,0.9-0.5,1.8-0.5,2.7c0,1.1-0.1,1.5-0.1,4.5s0,3.4,0.1,4.5c0,0.9,0.2,1.8,0.5,2.7c0.3,0.7,0.7,1.4,1.3,2c0.5,0.6,1.2,1,1.9,1.3
	c0.9,0.3,1.8,0.5,2.7,0.5c1.2,0,1.6,0.1,4.5,0.1s3.4,0,4.5-0.1c0.9,0,1.8-0.2,2.7-0.5c1.5-0.6,2.6-1.7,3.2-3.2
	c0.3-0.9,0.5-1.8,0.6-2.7c0-1.2,0.1-1.5,0.1-4.5s0-3.4-0.1-4.5c0-0.9-0.2-1.8-0.5-2.7c-0.3-0.7-0.7-1.4-1.3-1.9
	c-0.6-0.6-1.2-1-2-1.3c-0.9-0.3-1.8-0.5-2.7-0.5C23.4,8.7,23,8.7,20,8.7"/>
<path class="st1" d="M20,14.1c-3.1,0-5.6,2.5-5.6,5.7s2.5,5.6,5.7,5.6s5.6-2.5,5.6-5.7l0,0C25.7,16.6,23.1,14.1,20,14.1L20,14.1
	 M20,23.4c-2,0-3.7-1.6-3.7-3.7S18,16,20,16s3.7,1.6,3.7,3.7l0,0C23.7,21.7,22,23.4,20,23.4L20,23.4"/>
<path class="st1" d="M27.2,13.8c0,0.7-0.6,1.3-1.3,1.3s-1.3-0.6-1.3-1.3s0.6-1.3,1.3-1.3l0,0C26.6,12.5,27.2,13.1,27.2,13.8"/>
</svg>
