<?xml version="1.0" encoding="utf-8"?>
<!-- Generator: Adobe Illustrator 22.1.0, SVG Export Plug-In . SVG Version: 6.00 Build 0)  -->
<svg version="1.1" id="Capa_1" xmlns="http://www.w3.org/2000/svg" xmlns:xlink="http://www.w3.org/1999/xlink" x="0px" y="0px"
	 viewBox="0 0 613 170" style="enable-background:new 0 0 613 170;" xml:space="preserve">
<style type="text/css">
	.st0{fill:#48AB33;stroke:#48AB33;stroke-width:2;stroke-miterlimit:10;}
	.st1{fill:#367831;stroke:#48AB33;stroke-width:3.5629;stroke-miterlimit:10;}
	.st2{fill:#EF7D19;stroke:#EE7D18;stroke-width:3;stroke-miterlimit:10;}
</style>
<title>logo</title>
<g>
	<path class="st0" d="M97.7,70c-1.8-5.6-4.4-10.4-7.9-14.4c-3.4-4-7.7-7.1-12.7-9.2c-5-2.2-10.7-3.3-17.1-3.3
		c-6.4,0-12,1.1-17.1,3.3c-5,2.2-9.3,5.2-12.7,9.2c-1.2,1.4-2.4,2.9-3.4,4.5c2.1,2.1,3.7,4.6,5.5,7c1.1-2.5,2.4-4.7,4-6.7
		c2.6-3.4,5.9-6,9.9-7.9c3.9-1.8,8.6-2.8,13.9-2.8c5.3,0,9.9,0.9,13.9,2.8c3.9,1.8,7.2,4.5,9.9,7.9c2.6,3.4,4.6,7.5,5.9,12.3
		c1.3,4.8,2,10.2,2,16c0,5.9-0.7,11.3-2,16.1c-1.3,4.8-3.3,8.9-5.9,12.2c-2.6,3.4-5.9,6-9.9,7.8c-3.9,1.8-8.6,2.7-13.9,2.7
		c-5.3,0-9.9-0.9-13.9-2.7c-3.9-1.8-7.2-4.4-9.9-7.8c-2.4-3-4.2-6.6-5.5-10.8c-2.9,0.3-5.7,0.5-8.6,0.7c0.1,0.2,0.1,0.4,0.2,0.6
		c1.8,5.6,4.5,10.4,7.9,14.3c3.5,4,7.7,7,12.7,9.2c5,2.1,10.7,3.2,17.1,3.2c6.4,0,12-1.1,17.1-3.2c5-2.1,9.2-5.2,12.7-9.2
		c3.4-4,6.1-8.8,7.9-14.3c1.8-5.6,2.7-11.8,2.7-18.8C100.4,81.9,99.5,75.6,97.7,70z"/>
	<path class="st0" d="M122.6,133.2V44.6h4.5c1,0,1.7,0.2,2.2,0.6c0.4,0.4,0.7,1.1,0.8,2.1l0.7,18.7c2.9-7.2,6.6-12.8,11.4-16.9
		c4.7-4.1,10.6-6.1,17.5-6.1c2.7,0,5.1,0.3,7.4,0.8c2.3,0.6,4.4,1.4,6.4,2.4l-1.2,5.9c-0.2,1-0.8,1.4-1.8,1.4
		c-0.4,0-0.9-0.1-1.5-0.4c-0.7-0.2-1.5-0.5-2.4-0.8c-1-0.3-2.2-0.6-3.6-0.8c-1.4-0.2-3.1-0.4-4.9-0.4c-6.7,0-12.2,2.1-16.5,6.2
		c-4.3,4.2-7.8,10.2-10.5,18v57.6H122.6z"/>
	<path class="st0" d="M222.6,43.1c3.9,0,7.4,0.5,10.7,1.4c3.3,1,6.2,2.3,8.9,4h22.7v2.9c0,1.5-0.8,2.3-2.5,2.4l-13.5,1
		c1.7,2.3,2.9,4.8,3.8,7.6c0.9,2.8,1.3,5.8,1.3,9c0,4.3-0.8,8.2-2.3,11.6c-1.5,3.5-3.7,6.4-6.5,8.9c-2.8,2.5-6.1,4.4-9.9,5.7
		c-3.9,1.4-8.1,2-12.8,2c-5.1,0-9.7-0.8-13.9-2.3c-2.5,1.4-4.5,3.1-5.9,5.1c-1.4,2-2.1,3.9-2.1,5.7c0,2.6,0.9,4.5,2.7,5.9
		c1.8,1.4,4.1,2.4,7.1,3c2.9,0.6,6.3,1,10.1,1.2c3.8,0.2,7.6,0.4,11.5,0.6c3.9,0.2,7.7,0.6,11.5,1.1c3.8,0.5,7.1,1.5,10.1,2.8
		c2.9,1.3,5.3,3.2,7.1,5.6c1.8,2.4,2.7,5.6,2.7,9.6c0,3.7-0.9,7.2-2.8,10.6c-1.8,3.4-4.5,6.4-8,9c-3.5,2.6-7.7,4.7-12.6,6.3
		c-4.9,1.6-10.5,2.4-16.6,2.4c-6.2,0-11.7-0.6-16.4-1.9c-4.7-1.3-8.6-3-11.8-5.2c-3.2-2.2-5.6-4.7-7.2-7.5c-1.6-2.9-2.4-5.9-2.4-9.1
		c0-4.7,1.5-8.7,4.6-12.1c3.1-3.4,7.3-6,12.7-7.8c-3-1-5.3-2.5-7.1-4.4c-1.8-1.9-2.6-4.5-2.6-7.9c0-1.2,0.2-2.6,0.7-3.9
		c0.5-1.4,1.2-2.7,2.1-4.1c0.9-1.3,2.1-2.6,3.4-3.8c1.3-1.2,2.9-2.3,4.7-3.2c-4.2-2.4-7.5-5.7-9.8-9.7c-2.3-4-3.5-8.8-3.5-14.2
		c0-4.3,0.8-8.2,2.3-11.6c1.5-3.5,3.7-6.5,6.4-9c2.8-2.5,6.1-4.4,10-5.8C213.5,43.8,217.8,43.1,222.6,43.1z M255.4,139.2
		c0-2.8-0.7-5-2.2-6.7c-1.5-1.7-3.4-3-5.8-4c-2.4-0.9-5.2-1.6-8.4-2c-3.2-0.4-6.5-0.7-10-0.8c-3.5-0.2-7-0.4-10.5-0.5
		c-3.5-0.2-6.8-0.5-9.8-1.1c-2.3,0.9-4.4,1.9-6.3,3.1c-1.9,1.2-3.6,2.5-4.9,3.9c-1.4,1.5-2.4,3.1-3.2,4.8c-0.8,1.8-1.2,3.7-1.2,5.7
		c0,2.6,0.7,5,2,7.3c1.3,2.2,3.3,4.2,5.9,5.8c2.6,1.6,5.7,2.9,9.5,3.9c3.7,0.9,8,1.4,12.9,1.4c4.5,0,8.7-0.5,12.6-1.5
		c3.9-1,7.3-2.4,10.2-4.3c2.9-1.8,5.1-4,6.8-6.6C254.6,145,255.4,142.2,255.4,139.2z M222.6,94c3.8,0,7.2-0.5,10.2-1.6
		c3-1.1,5.5-2.6,7.5-4.6c2-2,3.5-4.3,4.6-7c1-2.7,1.6-5.8,1.6-9.1c0-3.3-0.5-6.4-1.6-9.1c-1.1-2.8-2.6-5.1-4.7-7.1
		c-2-2-4.5-3.5-7.5-4.5c-2.9-1.1-6.3-1.6-10-1.6c-3.7,0-7.1,0.5-10.1,1.6c-3,1.1-5.5,2.6-7.5,4.5c-2,2-3.6,4.3-4.7,7.1
		c-1.1,2.8-1.6,5.8-1.6,9.1c0,3.3,0.5,6.4,1.6,9.1c1.1,2.7,2.6,5.1,4.7,7c2,2,4.6,3.5,7.5,4.6C215.5,93.5,218.8,94,222.6,94z"/>
	<path class="st0" d="M339.8,133.2c-1.8,0-2.9-0.8-3.3-2.5l-1.2-11.3c-2.4,2.4-4.9,4.5-7.3,6.4c-2.4,1.9-4.9,3.5-7.5,4.8
		c-2.6,1.3-5.4,2.3-8.5,3s-6.4,1-10,1c-3,0-6-0.4-8.8-1.3c-2.9-0.9-5.4-2.3-7.6-4.1c-2.2-1.8-4-4.2-5.3-7.1c-1.3-2.9-2-6.3-2-10.4
		c0-3.7,1.1-7.2,3.2-10.4c2.1-3.2,5.5-6,10-8.4c4.5-2.4,10.4-4.3,17.5-5.7c7.2-1.4,15.8-2.3,25.8-2.5v-9.3c0-8.2-1.8-14.5-5.3-18.9
		c-3.5-4.4-8.8-6.6-15.7-6.6c-4.3,0-7.9,0.6-10.9,1.8c-3,1.2-5.5,2.5-7.6,3.9c-2.1,1.4-3.8,2.7-5.1,3.9c-1.3,1.2-2.4,1.8-3.3,1.8
		c-1.2,0-2.1-0.5-2.7-1.6l-1.5-2.6c4.6-4.6,9.5-8.1,14.6-10.5c5.1-2.4,10.9-3.6,17.4-3.6c4.7,0,8.9,0.8,12.5,2.3
		c3.6,1.5,6.5,3.7,8.9,6.5c2.3,2.8,4.1,6.2,5.3,10.2c1.2,4,1.8,8.5,1.8,13.4v57.7H339.8z M304.2,128.5c3.4,0,6.6-0.4,9.5-1.1
		c2.9-0.7,5.6-1.8,8-3.1c2.5-1.3,4.8-2.9,6.9-4.8c2.1-1.8,4.2-3.8,6.3-6V90.5c-8.4,0.2-15.7,0.9-21.8,1.9c-6.1,1-11.1,2.4-15.1,4.2
		c-3.9,1.8-6.9,3.9-8.7,6.4c-1.9,2.5-2.8,5.3-2.8,8.4c0,3,0.5,5.5,1.5,7.7c1,2.2,2.3,3.9,3.9,5.3c1.6,1.4,3.5,2.4,5.6,3.1
		C299.6,128.2,301.8,128.5,304.2,128.5z"/>
	<path class="st0" d="M369.9,133.2V44.6h4.6c1.5,0,2.4,0.7,2.7,2.2l0.8,13.4c4-5.1,8.7-9.2,14.1-12.3c5.4-3.1,11.4-4.7,17.9-4.7
		c4.9,0,9.2,0.8,12.9,2.3c3.7,1.5,6.8,3.8,9.2,6.7c2.4,2.9,4.3,6.4,5.5,10.5c1.2,4.1,1.9,8.7,1.9,13.9v56.7h-8.5V76.6
		c0-8.3-1.9-14.8-5.7-19.6c-3.8-4.7-9.6-7.1-17.5-7.1c-5.8,0-11.2,1.5-16.2,4.5c-5,3-9.4,7.1-13.4,12.3v66.4H369.9z"/>
	<path class="st0" d="M481,14.1c0,1.1-0.2,2.1-0.7,3c-0.4,0.9-1,1.7-1.7,2.4c-0.7,0.7-1.5,1.3-2.5,1.7c-1,0.4-2,0.6-3,0.6
		c-1.1,0-2.1-0.2-3-0.6c-1-0.4-1.8-1-2.5-1.7c-0.7-0.7-1.3-1.5-1.7-2.4c-0.4-0.9-0.6-1.9-0.6-3s0.2-2.1,0.6-3.1c0.4-1,1-1.8,1.7-2.5
		c0.7-0.7,1.5-1.3,2.5-1.7c0.9-0.4,2-0.6,3-0.6c1.1,0,2.1,0.2,3,0.6c0.9,0.4,1.8,1,2.5,1.7c0.7,0.7,1.3,1.6,1.7,2.5
		C480.7,12,481,13,481,14.1z M477.2,44.6v88.6h-8.5V44.6H477.2z"/>
	<path class="st0" d="M566.9,56.4c-0.3,0.3-0.6,0.5-0.8,0.8c-0.3,0.2-0.6,0.3-1.1,0.3c-0.6,0-1.4-0.4-2.4-1.2
		c-1-0.8-2.4-1.7-4.1-2.6c-1.7-0.9-3.9-1.8-6.5-2.6c-2.6-0.8-5.7-1.2-9.4-1.2c-5.1,0-9.6,0.9-13.6,2.7c-3.9,1.8-7.3,4.4-10,7.8
		c-2.7,3.4-4.8,7.5-6.2,12.3c-1.4,4.8-2.1,10.2-2.1,16.2c0,6.2,0.7,11.8,2.2,16.6c1.5,4.8,3.5,8.9,6.2,12.2s5.9,5.8,9.7,7.5
		c3.8,1.7,8,2.6,12.6,2.6c4.3,0,7.9-0.5,10.7-1.5c2.9-1,5.3-2.1,7.1-3.3c1.9-1.2,3.4-2.3,4.5-3.3c1.1-1,2-1.5,2.6-1.5
		c0.8,0,1.4,0.3,1.8,0.9l2.3,2.9c-1.4,1.8-3.1,3.4-5.2,5c-2.1,1.5-4.4,2.9-7,4c-2.6,1.1-5.4,2-8.5,2.6c-3.1,0.6-6.3,0.9-9.6,0.9
		c-5.6,0-10.8-1-15.5-3.1c-4.7-2-8.7-5-12-8.9c-3.4-3.9-6-8.7-7.8-14.3c-1.9-5.6-2.8-12.1-2.8-19.2c0-6.8,0.9-12.9,2.7-18.5
		c1.8-5.6,4.4-10.4,7.8-14.4c3.4-4,7.6-7.2,12.6-9.4c5-2.2,10.6-3.3,17.1-3.3c5.8,0,10.9,0.9,15.4,2.8c4.5,1.8,8.4,4.3,11.7,7.5
		L566.9,56.4z"/>
</g>
<path class="st1" d="M603.7,74.7c-0.6-0.4-1.5-0.4-3-0.2c-7.8,1.3-30.4,10.6-36.8,20.5c-2.4,3.6-3.4,7.4-2.9,11.1c0,0,0,0,0,0
	c0.7,5.8,4.6,10.1,7,12.2c-3.6,3.4-7.2,6-10.4,7.6c-0.6,0.3-0.9,0.9-0.8,1.5c0,0.2,0.1,0.3,0.1,0.5c0.4,0.7,1.2,1,2,0.7
	c3.6-1.7,7.5-4.7,11.5-8.4c4.4,3,14.1,7.6,23-1.7c8.7-9,12.4-34.7,11.6-41.1c-0.1-1.3-0.4-2-1-2.4c0,0-0.1,0-0.1,0c0,0,0,0-0.1,0
	C603.7,74.7,603.7,74.7,603.7,74.7z M600.2,77.6c-2.2,3.4-6.6,10-12.1,17.4l-3.2-11.6C591.1,80.4,597,78.3,600.2,77.6z M582.2,84.6
	l3.6,13.3c-3,3.9-6.2,7.9-9.5,11.6l-3.8-19c0,0,0,0,0,0C575.4,88.3,578.8,86.4,582.2,84.6z M588.3,99.6l11-1.3
	c-0.9,3.7-2.1,7.4-3.5,10.6c-0.1,0-0.1,0-0.1,0l-16.4,1.9C582.4,107.1,585.5,103.3,588.3,99.6L588.3,99.6z M590.8,96.4
	c4.9-6.6,8.9-12.6,11.3-16.2c-0.1,3.6-0.8,9.2-2.1,15.1L590.8,96.4z M572.5,118c1.3-1.3,2.5-2.6,3.8-3.9l18-2.1
	c-0.9,1.7-2,3.2-3.1,4.4C584.2,123.6,576.7,120.7,572.5,118z M570,92.5l4,19.7c-1.3,1.4-2.6,2.7-3.9,4c-2-1.7-5.7-5.5-6.2-10.5
	c0,0,0,0,0,0c-0.3-3,0.5-6.1,2.5-9.2C567.2,95.2,568.5,93.9,570,92.5z"/>
<path class="st1" d="M16.9,54.1C16.8,54.1,16.8,54.1,16.9,54.1c-0.1,0-0.1,0-0.2,0c-0.7,0.1-1.3,0.7-2,1.7
	c-3.5,5.5-11.6,30.1-7.9,42c3.9,12.3,14.6,12.4,19.8,11.7c1.9,5.1,4.1,9.5,6.6,12.7c0.5,0.6,1.4,0.8,2.1,0.3
	c0.1-0.1,0.2-0.2,0.3-0.4c0.3-0.5,0.3-1.2-0.1-1.7c-2.2-2.8-4.2-6.8-6-11.4c3.1-0.8,8.5-2.9,11.7-7.8c0,0,0,0,0,0
	c2-3.1,2.8-6.9,2.3-11.2c-1.4-11.8-17.5-30.1-23.9-34.7c-1.2-0.9-2-1.2-2.7-1.1C16.9,54.1,16.9,54.1,16.9,54.1z M30,70.1l-8,9
	c-1.6-9-2.7-16.9-3.1-20.9C21.3,60.3,25.7,64.8,30,70.1z M37.8,82C37.8,82,37.8,82,37.8,82L26,97.4c-1.3-4.8-2.4-9.8-3.3-14.6
	l9.2-10.3C34.1,75.6,36.2,78.9,37.8,82z M19.7,83.3c0.9,4.6,2,9.4,3.2,14L9,88.3c0,0-0.1,0-0.1-0.1c0.2-3.5,0.8-7.3,1.6-11
	L19.7,83.3L19.7,83.3z M11.1,74.2c1.5-5.9,3.4-11.2,4.9-14.5c0.5,4.2,1.5,11.4,2.9,19.5L11.1,74.2z M9.7,97
	c-0.5-1.5-0.7-3.3-0.8-5.3l15.2,9.8c0.5,1.8,1.1,3.5,1.7,5.2C20.8,107.3,12.7,106.6,9.7,97z M40.7,90.3c0.4,3.6-0.2,6.8-1.8,9.3
	c0,0,0,0,0,0c-2.7,4.2-7.6,6-10.2,6.6c-0.6-1.7-1.2-3.5-1.7-5.3l12.3-15.9C40,86.9,40.5,88.7,40.7,90.3z"/>
<path class="st2" d="M481.1,14c0,1.1-0.2,2.1-0.7,3c-0.5,0.9-1,1.8-1.8,2.5c-0.7,0.7-1.6,1.3-2.5,1.7c-1,0.4-2,0.6-3.1,0.6
	c-1.1,0-2.1-0.2-3.1-0.6c-1-0.4-1.8-1-2.5-1.7c-0.7-0.7-1.3-1.5-1.7-2.5c-0.4-0.9-0.6-1.9-0.6-3s0.2-2.1,0.6-3.1
	c0.4-1,1-1.8,1.7-2.6c0.7-0.7,1.6-1.3,2.5-1.7c1-0.4,2-0.6,3.1-0.6c1.1,0,2.1,0.2,3.1,0.6c1,0.4,1.8,1,2.5,1.7
	c0.7,0.7,1.3,1.6,1.8,2.6C480.9,11.9,481.1,13,481.1,14z"/>
</svg>
