<?xml version="1.0" encoding="utf-8"?>
<!-- Generator: Adobe Illustrator 22.1.0, SVG Export Plug-In . SVG Version: 6.00 Build 0)  -->
<svg version="1.1" id="Capa_1" xmlns="http://www.w3.org/2000/svg" xmlns:xlink="http://www.w3.org/1999/xlink" x="0px" y="0px"
	 viewBox="0 0 170 170" style="enable-background:new 0 0 170 170;" xml:space="preserve">
<style type="text/css">
	.st0{fill:#C6631B;}
	.st1{fill:#FFFFFF;}
</style>
<title>-</title>
<circle class="st0" cx="84.5" cy="85" r="77.9"/>
<path class="st1" d="M84.5,36.8c15.4,0,27.8,12.5,27.8,27.8c0,15.4-12.5,27.8-27.8,27.8c-15.4,0-27.8-12.5-27.8-27.8c0,0,0,0,0,0
	c0-15.3,12.4-27.8,27.7-27.8C84.5,36.7,84.5,36.7,84.5,36.8z"/>
<path class="st1" d="M84.5,101.1c22.4,0,42.1,18.9,47,46c-6.8,5.2-14.4,9.2-22.4,11.9c-24.3,8.2-51.1,3.7-71.6-11.9
	C42.4,120,62.2,101.1,84.5,101.1z"/>
</svg>
