<svg id="Capa_1" data-name="Capa 1" xmlns="http://www.w3.org/2000/svg" viewBox="0 0 30 30"><defs><style>.cls-1{fill:none;stroke:#fff;stroke-miterlimit:10;stroke-width:2.2px;}.cls-2{fill:#fafafa;}</style></defs><title>wsp</title><path class="cls-1" d="M15,1.5h0A13.49,13.49,0,0,0,4.07,22.91l-1.68,5,5.19-1.66A13.5,13.5,0,1,0,15,1.5Z"/><path class="cls-2" d="M22.86,20.56a3.82,3.82,0,0,1-2.65,1.91c-.71.15-1.63.27-4.73-1-4-1.64-6.52-5.67-6.72-5.93a7.78,7.78,0,0,1-1.6-4.08A4.29,4.29,0,0,1,8.54,8.16a2,2,0,0,1,1.38-.49l.45,0c.4,0,.6,0,.86.67.32.78,1.12,2.72,1.21,2.92a.81.81,0,0,1,.06.73,2.42,2.42,0,0,1-.44.62c-.2.23-.39.4-.59.65s-.39.44-.16.84a12.2,12.2,0,0,0,2.19,2.72,9.89,9.89,0,0,0,3.17,1.95.83.83,0,0,0,.95-.15,15.86,15.86,0,0,0,1.06-1.39.75.75,0,0,1,1-.3c.36.13,2.29,1.08,2.69,1.28s.65.29.75.46A3.45,3.45,0,0,1,22.86,20.56Z"/></svg>